<svg width="29" height="29" viewBox="0 0 29 29" fill="none" xmlns="http://www.w3.org/2000/svg">
<path d="M11.0492 24.3098V20.732C11.0492 19.8219 11.7911 19.0825 12.7103 19.0764H16.0774C17.001 19.0764 17.7497 19.8176 17.7497 20.732V24.3209C17.7495 25.0936 18.3724 25.7251 19.1527 25.7432H21.3974C23.6351 25.7432 25.4491 23.9473 25.4491 21.732V11.554C25.4372 10.6825 25.0239 9.86409 24.3268 9.33172L16.6498 3.20937C15.3049 2.14335 13.393 2.14335 12.0481 3.20937L4.40483 9.34283C3.70511 9.87304 3.29109 10.6928 3.28247 11.5651V21.732C3.28247 23.9473 5.09649 25.7432 7.3342 25.7432H9.57893C10.3786 25.7432 11.0268 25.1014 11.0268 24.3098" stroke="white" stroke-width="1.5" stroke-linecap="round" stroke-linejoin="round"/>
</svg>
