<svg width="29" height="29" viewBox="0 0 29 29" fill="none" xmlns="http://www.w3.org/2000/svg">
<path fill-rule="evenodd" clip-rule="evenodd" d="M14.2228 25.3488C9.91573 25.3488 6.23755 24.6785 6.23755 21.9944C6.23755 19.3101 9.8924 16.8321 14.2228 16.8321C18.53 16.8321 22.2082 19.2861 22.2082 21.9703C22.2082 24.6534 18.5533 25.3488 14.2228 25.3488Z" fill="white"/>
<path fill-rule="evenodd" clip-rule="evenodd" d="M14.2144 13.1125C17.041 13.1125 19.3319 10.8216 19.3319 7.99508C19.3319 5.16856 17.041 2.87659 14.2144 2.87659C11.3879 2.87659 9.09598 5.16856 9.09598 7.99508C9.08643 10.812 11.3614 13.103 14.1784 13.1125C14.1911 13.1125 14.2027 13.1125 14.2144 13.1125Z" fill="white"/>
</svg>
